<svg width="849" height="701" viewBox="0 0 849 701" fill="none" xmlns="http://www.w3.org/2000/svg">
<g clip-path="url(#clip0_26852_70)">
<path d="M459.041 114.575C458.832 138.416 457.085 162.22 453.812 185.837C453.698 186.666 453.573 187.495 453.458 188.325L230.182 187.077C229.526 186.253 228.881 185.42 228.256 184.576C226.171 181.785 224.218 178.914 222.424 175.944C213.804 161.635 209.857 144.883 213.812 133.325L213.883 133.145C214.736 130.614 216.082 128.277 217.841 126.267C226.858 116.117 245.089 117.809 261.633 126.002C246.794 109.759 234.978 89.2623 234.081 70.967C233.2 53.1218 242.531 40.3738 252.652 29.5401C252.984 29.182 253.316 28.8338 253.648 28.4857C253.81 28.3066 253.98 28.1375 254.141 27.9584C262.037 19.7024 271.243 11.5637 284.568 12.5482C299.182 13.6299 315.384 25.8706 326.745 40.1343C338.105 54.388 345.654 70.5804 353.306 86.3834C360.968 102.176 369.258 118.373 381.553 131.872C364.9 110.809 351.474 86.8432 346.514 63.5351C341.554 40.227 345.919 17.8411 360.761 6.86383C365.266 3.63399 370.48 1.53027 375.966 0.728712C376.606 0.622302 377.256 0.535923 377.917 0.459593C391.656 -1.10362 408.06 3.64808 422.016 15.0062C437.387 27.5123 448.043 46.0521 453.345 63.652C458.647 81.2519 459.212 98.1954 459.041 114.575Z" fill="#F1EEEF"/>
<path d="M312.96 187.54L308.691 187.516C307.335 186.668 305.973 185.83 304.605 185.003C303.758 184.468 302.901 183.953 302.043 183.428C287.881 174.779 273.631 166.483 259.292 158.539C244.966 150.589 230.568 143.005 216.098 135.788C215.714 135.621 215.402 135.324 215.214 134.951C215.026 134.577 214.975 134.149 215.069 133.742C215.085 133.688 215.109 133.638 215.141 133.592C215.342 133.213 215.794 133.056 216.452 133.379C218.227 134.269 220.012 135.159 221.787 136.069C236.296 143.41 250.743 151.118 265.128 159.192C279.503 167.262 293.796 175.689 308.008 184.472C308.306 184.653 308.606 184.845 308.904 185.027C310.26 185.864 311.605 186.702 312.96 187.54Z" fill="white"/>
<path d="M368.009 187.847L365.369 187.832C364.774 186.999 364.189 186.166 363.593 185.332C349.603 165.714 335.616 146.095 321.631 126.477C298.73 94.3584 275.836 62.24 252.949 30.1216C252.813 29.9487 252.712 29.7512 252.652 29.5399C252.456 28.8288 252.979 28.4117 253.648 28.4854C253.93 28.5258 254.201 28.6258 254.441 28.7789C254.682 28.932 254.887 29.1346 255.043 29.3732C267.883 47.3852 280.719 65.3906 293.552 83.3893C316.334 115.347 339.112 147.301 361.888 179.253C363.336 181.281 364.785 183.319 366.233 185.347C366.829 186.18 367.424 187.014 368.009 187.847Z" fill="white"/>
<path d="M426.826 172.516C426.691 176.965 426.397 181.343 426.012 185.681C425.938 186.511 425.863 187.34 425.788 188.17L423.018 188.154C423.103 187.325 423.188 186.495 423.262 185.666C423.848 179.399 424.263 173.061 424.319 166.551C424.393 148.503 422.634 130.494 419.07 112.801C415.281 93.7508 409.841 75.0664 402.811 56.9595C395.433 37.8625 386.537 19.3869 376.21 1.71001C376.015 1.4219 375.929 1.07435 375.965 0.72864C376.08 -0.0607701 377.131 -0.294879 377.916 0.459521C378.072 0.607529 378.205 0.776577 378.314 0.961733C379.591 3.15891 380.846 5.36263 382.077 7.57289C392.024 25.3479 400.538 43.8877 407.538 63.016C414.205 81.1822 419.277 99.8948 422.695 118.942C425.897 136.612 427.281 154.563 426.826 172.516Z" fill="white"/>
<path d="M615.72 186.474H8.71973C6.40771 186.476 4.19098 187.395 2.55617 189.03C0.92135 190.665 0.00202823 192.882 0 195.194V606.514C0.00202823 608.826 0.92135 611.042 2.55617 612.677C4.19098 614.312 6.40771 615.232 8.71973 615.234H615.72C616.98 615.234 618.226 614.96 619.371 614.432C620.516 613.904 621.532 613.133 622.35 612.174C622.419 612.099 622.483 612.018 622.54 611.934C623.061 611.297 623.482 610.586 623.79 609.824C624.229 608.775 624.453 607.65 624.45 606.514V195.194C624.447 192.88 623.526 190.662 621.889 189.027C620.252 187.392 618.033 186.474 615.72 186.474V186.474ZM621.96 606.514C621.961 607.73 621.603 608.92 620.93 609.934C620.332 610.826 619.521 611.555 618.57 612.054C617.689 612.509 616.711 612.745 615.72 612.744H8.71973C7.06804 612.742 5.48458 612.085 4.31667 610.917C3.14875 609.749 2.49172 608.165 2.48972 606.514V195.194C2.49172 193.542 3.14875 191.959 4.31667 190.791C5.48458 189.623 7.06804 188.966 8.71973 188.964H615.72C617.373 188.963 618.959 189.619 620.129 190.788C621.299 191.956 621.957 193.54 621.96 195.194V606.514Z" fill="#3A3546"/>
<path d="M623.199 221.423H1.24268V223.916H623.199V221.423Z" fill="#3A3546"/>
<path d="M22.4316 212.648C26.5618 212.648 29.91 209.3 29.91 205.17C29.91 201.04 26.5618 197.691 22.4316 197.691C18.3013 197.691 14.9531 201.04 14.9531 205.17C14.9531 209.3 18.3013 212.648 22.4316 212.648Z" fill="#3A3546"/>
<path d="M43.9321 212.648C48.0623 212.648 51.4105 209.3 51.4105 205.17C51.4105 201.04 48.0623 197.691 43.9321 197.691C39.8018 197.691 36.4536 201.04 36.4536 205.17C36.4536 209.3 39.8018 212.648 43.9321 212.648Z" fill="#3A3546"/>
<path d="M65.4325 212.648C69.5628 212.648 72.911 209.3 72.911 205.17C72.911 201.04 69.5628 197.691 65.4325 197.691C61.3023 197.691 57.9541 201.04 57.9541 205.17C57.9541 209.3 61.3023 212.648 65.4325 212.648Z" fill="#3A3546"/>
<path d="M468.319 279.126H156.319C152.872 279.126 149.565 277.756 147.127 275.318C144.689 272.88 143.319 269.574 143.319 266.126C143.319 262.678 144.689 259.372 147.127 256.934C149.565 254.496 152.872 253.126 156.319 253.126H468.319C471.767 253.126 475.074 254.496 477.512 256.934C479.95 259.372 481.319 262.678 481.319 266.126C481.319 269.574 479.95 272.88 477.512 275.318C475.074 277.756 471.767 279.126 468.319 279.126V279.126ZM156.319 255.126C153.402 255.126 150.604 256.285 148.541 258.348C146.478 260.411 145.319 263.209 145.319 266.126C145.319 269.043 146.478 271.841 148.541 273.904C150.604 275.967 153.402 277.126 156.319 277.126H468.319C471.237 277.126 474.035 275.967 476.098 273.904C478.16 271.841 479.319 269.043 479.319 266.126C479.319 263.209 478.16 260.411 476.098 258.348C474.035 256.285 471.237 255.126 468.319 255.126H156.319Z" fill="#3A3546"/>
<path d="M182.225 431.744H62.2246C57.7175 431.739 53.3964 429.946 50.2094 426.759C47.0224 423.572 45.2297 419.251 45.2246 414.744V358.744C45.2297 354.237 47.0224 349.915 50.2094 346.728C53.3964 343.541 57.7175 341.749 62.2246 341.744H182.225C186.732 341.749 191.053 343.541 194.24 346.728C197.427 349.915 199.22 354.237 199.225 358.744V414.744C199.22 419.251 197.427 423.572 194.24 426.759C191.053 429.946 186.732 431.739 182.225 431.744V431.744Z" fill="#F03844"/>
<path d="M372.225 431.744H252.225C247.718 431.739 243.396 429.946 240.209 426.759C237.022 423.572 235.23 419.251 235.225 414.744V358.744C235.23 354.237 237.022 349.915 240.209 346.728C243.396 343.541 247.718 341.749 252.225 341.744H372.225C376.732 341.749 381.053 343.541 384.24 346.728C387.427 349.915 389.22 354.237 389.225 358.744V414.744C389.22 419.251 387.427 423.572 384.24 426.759C381.053 429.946 376.732 431.739 372.225 431.744V431.744Z" fill="#F03844"/>
<path d="M562.225 431.744H442.225C437.718 431.739 433.397 429.946 430.21 426.759C427.023 423.572 425.23 419.251 425.225 414.744V358.744C425.23 354.237 427.023 349.915 430.21 346.728C433.397 343.541 437.718 341.749 442.225 341.744H562.225C566.732 341.749 571.053 343.541 574.24 346.728C577.427 349.915 579.22 354.237 579.225 358.744V414.744C579.22 419.251 577.427 423.572 574.24 426.759C571.053 429.946 566.732 431.739 562.225 431.744V431.744Z" fill="#F03844"/>
<path d="M182.225 549.744H62.2246C57.7175 549.739 53.3964 547.946 50.2094 544.759C47.0224 541.572 45.2297 537.251 45.2246 532.744V476.744C45.2297 472.237 47.0224 467.915 50.2094 464.728C53.3964 461.541 57.7175 459.749 62.2246 459.744H182.225C186.732 459.749 191.053 461.541 194.24 464.728C197.427 467.915 199.22 472.237 199.225 476.744V532.744C199.22 537.251 197.427 541.572 194.24 544.759C191.053 547.946 186.732 549.739 182.225 549.744V549.744Z" fill="#F03844"/>
<path d="M372.225 549.744H252.225C247.718 549.739 243.396 547.946 240.209 544.759C237.022 541.572 235.23 537.251 235.225 532.744V476.744C235.23 472.237 237.022 467.915 240.209 464.728C243.396 461.541 247.718 459.749 252.225 459.744H372.225C376.732 459.749 381.053 461.541 384.24 464.728C387.427 467.915 389.22 472.237 389.225 476.744V532.744C389.22 537.251 387.427 541.572 384.24 544.759C381.053 547.946 376.732 549.739 372.225 549.744V549.744Z" fill="#F03844"/>
<path d="M562.225 549.744H442.225C437.718 549.739 433.397 547.946 430.21 544.759C427.023 541.572 425.23 537.251 425.225 532.744V476.744C425.23 472.237 427.023 467.915 430.21 464.728C433.397 461.541 437.718 459.749 442.225 459.744H562.225C566.732 459.749 571.053 461.541 574.24 464.728C577.427 467.915 579.22 472.237 579.225 476.744V532.744C579.22 537.251 577.427 541.572 574.24 544.759C571.053 547.946 566.732 549.739 562.225 549.744V549.744Z" fill="#F03844"/>
<path d="M697.115 281.744C715.34 281.744 730.115 266.969 730.115 248.744C730.115 230.518 715.34 215.744 697.115 215.744C678.889 215.744 664.115 230.518 664.115 248.744C664.115 266.969 678.889 281.744 697.115 281.744Z" fill="#221F29"/>
<path d="M614.443 420.413C613.712 419.023 613.294 417.489 613.22 415.921C613.145 414.352 613.415 412.786 614.012 411.333C614.608 409.88 615.515 408.575 616.67 407.511C617.825 406.447 619.199 405.649 620.696 405.173L662.512 316.714L681.64 330.127L634.521 412.862C635.154 415.429 634.823 418.139 633.591 420.479C632.358 422.818 630.311 424.624 627.836 425.555C625.361 426.486 622.631 426.477 620.162 425.529C617.694 424.581 615.659 422.761 614.443 420.413V420.413Z" fill="#FFB8B8"/>
<path d="M650.275 328.458C650.076 327.795 650.022 327.097 650.117 326.412C650.212 325.726 650.454 325.069 650.827 324.486L663.828 304.103C665.273 300.87 667.942 298.342 671.248 297.074C674.554 295.805 678.229 295.899 681.466 297.335C684.703 298.771 687.238 301.432 688.516 304.735C689.795 308.037 689.711 311.712 688.284 314.953L681.735 338.306C681.548 338.973 681.22 339.591 680.772 340.119C680.325 340.648 679.769 341.073 679.142 341.367C678.515 341.661 677.832 341.816 677.14 341.822C676.448 341.828 675.763 341.685 675.131 341.403L652.922 331.472C652.29 331.19 651.726 330.774 651.269 330.254C650.813 329.734 650.473 329.121 650.275 328.458V328.458Z" fill="#F03844"/>
<path d="M755.49 429.183C753.96 428.827 752.527 428.141 751.291 427.172C750.055 426.203 749.047 424.974 748.337 423.573C747.627 422.172 747.233 420.633 747.183 419.063C747.132 417.493 747.427 415.932 748.045 414.488L708.443 325.016L731.097 319.31L762.902 409.052C765.258 410.252 767.092 412.274 768.057 414.736C769.022 417.198 769.051 419.928 768.137 422.41C767.223 424.891 765.431 426.951 763.1 428.199C760.769 429.447 758.061 429.797 755.49 429.183V429.183Z" fill="#FFB8B8"/>
<path d="M766.285 591.358L754.765 595.553L733.105 553.115L750.107 546.924L766.285 591.358Z" fill="#FFB8B8"/>
<path d="M745.339 595.257L767.556 587.168L772.649 601.157L736.443 614.339C735.774 612.502 735.474 610.551 735.559 608.598C735.644 606.645 736.113 604.728 736.939 602.956C737.765 601.184 738.932 599.592 740.373 598.271C741.814 596.95 743.502 595.926 745.339 595.257Z" fill="#221F29"/>
<path d="M734.837 564.515L690.95 487.713C690.526 486.969 690.307 486.127 690.316 485.272C690.325 484.416 690.562 483.578 691.002 482.845L710.764 449.907C711.233 449.126 711.913 448.494 712.727 448.084C713.54 447.674 714.454 447.503 715.36 447.591C716.267 447.679 717.13 448.023 717.85 448.582C718.569 449.141 719.115 449.892 719.425 450.749L756.788 554.217C757.2 555.343 757.174 556.583 756.718 557.691C756.261 558.8 755.405 559.697 754.32 560.207L741.081 566.478C740.442 566.78 739.744 566.937 739.037 566.937C738.186 566.938 737.349 566.715 736.612 566.289C735.874 565.864 735.262 565.252 734.837 564.515V564.515Z" fill="#221F29"/>
<path d="M694.111 284.8C707.676 284.8 718.672 273.803 718.672 260.239C718.672 246.674 707.676 235.678 694.111 235.678C680.546 235.678 669.55 246.674 669.55 260.239C669.55 273.803 680.546 284.8 694.111 284.8Z" fill="#FFB8B8"/>
<path d="M659.176 371.49C639.833 328.602 659.333 304.632 668.614 296.317C671.288 293.919 674.753 292.593 678.344 292.596H712.944C715.428 292.596 717.872 293.231 720.042 294.441C722.212 295.65 724.037 297.395 725.343 299.509C726.649 301.622 727.394 304.034 727.505 306.516C727.617 308.999 727.092 311.468 725.981 313.69L702.852 359.949L659.364 371.909L659.176 371.49Z" fill="#F03844"/>
<path d="M709.793 341.051C709.161 340.768 708.598 340.352 708.141 339.832C707.684 339.312 707.346 338.699 707.147 338.036L700.223 314.873C698.724 311.666 698.556 307.995 699.758 304.665C700.96 301.335 703.433 298.618 706.635 297.107C709.836 295.597 713.506 295.418 716.84 296.608C720.174 297.799 722.9 300.263 724.421 303.46L737.812 323.682C738.194 324.259 738.447 324.912 738.554 325.596C738.661 326.28 738.62 326.979 738.432 327.645C738.245 328.312 737.916 328.93 737.468 329.458C737.021 329.985 736.464 330.41 735.837 330.704L713.804 341.018C713.177 341.311 712.494 341.466 711.802 341.472C711.11 341.478 710.424 341.334 709.793 341.051V341.051Z" fill="#F03844"/>
<path d="M687.147 602.955L674.887 602.954L669.055 555.666L687.149 555.667L687.147 602.955Z" fill="#FFB8B8"/>
<path d="M666.13 599.451H689.774V614.338H651.243C651.243 612.383 651.628 610.447 652.376 608.641C653.125 606.835 654.221 605.194 655.603 603.811C656.986 602.429 658.627 601.332 660.433 600.584C662.239 599.836 664.175 599.451 666.13 599.451V599.451Z" fill="#221F29"/>
<path d="M681.952 584.902L662.324 582.638C661.688 582.565 661.074 582.366 660.516 582.052C659.959 581.739 659.469 581.318 659.076 580.813C658.683 580.309 658.394 579.731 658.227 579.114C658.059 578.497 658.017 577.852 658.101 577.218L675.619 445.318C675.68 444.859 675.655 444.392 675.546 443.942L657.938 371.297C657.772 370.627 657.753 369.929 657.883 369.251C658.013 368.573 658.289 367.931 658.692 367.371C661.422 363.607 670.778 354.834 698.606 354.668H698.637C699.563 354.668 700.471 354.935 701.25 355.436C702.03 355.937 702.649 356.651 703.034 357.495L706.746 365.661C707.022 366.267 707.455 366.789 707.999 367.173C713.108 370.79 737.861 391.091 723.327 435.662C709.042 479.469 690.739 564.517 687.215 581.12C686.991 582.2 686.401 583.168 685.545 583.863C684.689 584.558 683.62 584.936 682.518 584.935C682.329 584.935 682.14 584.924 681.952 584.902V584.902Z" fill="#221F29"/>
<path d="M719.919 244.79C714.306 248.658 707.644 250.717 700.828 250.69C703.259 252.376 706.028 253.515 708.942 254.028C699.879 255.972 690.512 256.025 681.427 254.182C679.408 253.859 677.46 253.189 675.668 252.204C674.775 251.706 673.997 251.024 673.384 250.205C672.772 249.386 672.338 248.447 672.113 247.45C671.509 244.001 674.196 240.868 676.989 238.756C681.264 235.573 686.194 233.38 691.421 232.335C696.648 231.29 702.042 231.421 707.213 232.717C710.589 233.59 713.972 235.064 716.165 237.775C718.358 240.487 719.007 244.667 716.918 247.459L719.919 244.79Z" fill="#221F29"/>
<path d="M703.52 227.705C700.714 226.771 697.827 225.791 695.604 223.841C693.381 221.892 691.969 218.703 692.969 215.92C693.932 213.238 696.865 211.672 699.706 211.461C702.548 211.25 705.344 212.13 708.057 212.998C706.83 211.144 705.563 207.549 704.453 203.758C701.92 195.106 712.473 187.205 721.464 187.857C721.729 187.876 721.985 187.904 722.233 187.94C731.299 189.262 736.002 192.721 742.334 199.343C750.255 207.627 754.397 218.804 757.171 229.925C759.946 241.045 761.574 252.489 765.476 263.266C769.378 274.042 775.959 284.402 786.022 289.887C791.534 292.792 797.738 294.126 803.957 293.743C810.175 293.36 816.169 291.274 821.282 287.714C821.978 292.447 821.55 297.277 820.03 301.813C818.511 306.349 815.945 310.464 812.538 313.822C809.132 317.181 804.982 319.69 800.425 321.145C795.868 322.6 791.033 322.961 786.31 322.199C773.318 320.1 762.911 309.636 757.352 297.707C751.793 285.779 750.275 272.427 748.88 259.34C747.486 246.254 746.073 232.906 740.695 220.895C738.519 216.034 735.314 211.086 729.588 210.31C728.093 210.066 726.559 210.322 725.224 211.038C723.888 211.753 722.826 212.889 722.201 214.269C719.684 220.363 728.298 225.523 726.09 231.331C725.612 232.455 724.822 233.418 723.813 234.107C722.804 234.796 721.619 235.181 720.398 235.218C716.235 235.491 712.814 233.105 709.592 230.801C703 226.089 703.52 227.705 703.52 227.705Z" fill="#221F29"/>
<path d="M847.284 615.234H617.284C617.019 615.234 616.765 615.129 616.577 614.941C616.389 614.753 616.284 614.499 616.284 614.234C616.284 613.969 616.389 613.714 616.577 613.527C616.765 613.339 617.019 613.234 617.284 613.234H847.284C847.549 613.234 847.804 613.339 847.991 613.527C848.179 613.714 848.284 613.969 848.284 614.234C848.284 614.499 848.179 614.753 847.991 614.941C847.804 615.129 847.549 615.234 847.284 615.234Z" fill="#3A3546"/>
</g>
<path d="M126.05 653.5H129.85L144.35 689H139.55L135.35 678.6H120.45L116.3 689H111.5L126.05 653.5ZM134.35 675.1L127.95 658.7L121.35 675.1H134.35ZM158.055 689.3C156.289 689.3 154.655 688.95 153.155 688.25C151.689 687.517 150.422 686.533 149.355 685.3C148.289 684.033 147.455 682.6 146.855 681C146.289 679.4 146.005 677.733 146.005 676C146.005 674.167 146.289 672.433 146.855 670.8C147.455 669.167 148.289 667.733 149.355 666.5C150.455 665.233 151.739 664.25 153.205 663.55C154.672 662.817 156.305 662.45 158.105 662.45C160.272 662.45 162.155 662.983 163.755 664.05C165.389 665.117 166.755 666.467 167.855 668.1V662.9H171.755V688.7C171.755 691.167 171.155 693.25 169.955 694.95C168.789 696.65 167.189 697.933 165.155 698.8C163.155 699.7 160.922 700.15 158.455 700.15C155.522 700.15 153.122 699.633 151.255 698.6C149.389 697.567 147.839 696.167 146.605 694.4L149.155 692.15C150.189 693.683 151.522 694.833 153.155 695.6C154.822 696.367 156.589 696.75 158.455 696.75C160.055 696.75 161.522 696.45 162.855 695.85C164.222 695.283 165.305 694.4 166.105 693.2C166.939 692 167.355 690.5 167.355 688.7V684.1C166.389 685.7 165.055 686.967 163.355 687.9C161.689 688.833 159.922 689.3 158.055 689.3ZM159.405 685.7C160.339 685.7 161.239 685.533 162.105 685.2C162.972 684.867 163.772 684.433 164.505 683.9C165.239 683.333 165.855 682.7 166.355 682C166.855 681.3 167.189 680.583 167.355 679.85V672.35C166.889 671.15 166.222 670.1 165.355 669.2C164.489 668.267 163.505 667.55 162.405 667.05C161.305 666.517 160.172 666.25 159.005 666.25C157.672 666.25 156.472 666.533 155.405 667.1C154.372 667.667 153.489 668.433 152.755 669.4C152.022 670.333 151.455 671.383 151.055 672.55C150.655 673.717 150.455 674.9 150.455 676.1C150.455 677.4 150.689 678.633 151.155 679.8C151.622 680.933 152.255 681.95 153.055 682.85C153.855 683.75 154.805 684.45 155.905 684.95C157.005 685.45 158.172 685.7 159.405 685.7ZM178.607 678.55V662.9H183.007V677.7C183.007 680.367 183.473 682.367 184.407 683.7C185.34 685.033 186.723 685.7 188.557 685.7C189.757 685.7 190.907 685.45 192.007 684.95C193.14 684.417 194.157 683.667 195.057 682.7C195.957 681.733 196.657 680.583 197.157 679.25V662.9H201.557V684C201.557 684.533 201.657 684.933 201.857 685.2C202.09 685.433 202.457 685.567 202.957 685.6V689C202.457 689.067 202.057 689.1 201.757 689.1C201.49 689.133 201.223 689.15 200.957 689.15C200.123 689.15 199.407 688.9 198.807 688.4C198.207 687.867 197.89 687.217 197.857 686.45L197.757 683.4C196.623 685.333 195.09 686.833 193.157 687.9C191.257 688.967 189.173 689.5 186.907 689.5C184.173 689.5 182.107 688.583 180.707 686.75C179.307 684.883 178.607 682.15 178.607 678.55ZM206.836 681.45C206.836 679.783 207.303 678.35 208.236 677.15C209.203 675.917 210.519 674.967 212.186 674.3C213.853 673.633 215.786 673.3 217.986 673.3C219.153 673.3 220.386 673.4 221.686 673.6C222.986 673.767 224.136 674.033 225.136 674.4V672.5C225.136 670.5 224.536 668.933 223.336 667.8C222.136 666.633 220.436 666.05 218.236 666.05C216.803 666.05 215.419 666.317 214.086 666.85C212.786 667.35 211.403 668.083 209.936 669.05L208.336 665.95C210.036 664.783 211.736 663.917 213.436 663.35C215.136 662.75 216.903 662.45 218.736 662.45C222.069 662.45 224.703 663.383 226.636 665.25C228.569 667.083 229.536 669.65 229.536 672.95V684C229.536 684.533 229.636 684.933 229.836 685.2C230.069 685.433 230.436 685.567 230.936 685.6V689C230.503 689.067 230.119 689.117 229.786 689.15C229.486 689.183 229.236 689.2 229.036 689.2C228.003 689.2 227.219 688.917 226.686 688.35C226.186 687.783 225.903 687.183 225.836 686.55L225.736 684.9C224.603 686.367 223.119 687.5 221.286 688.3C219.453 689.1 217.636 689.5 215.836 689.5C214.103 689.5 212.553 689.15 211.186 688.45C209.819 687.717 208.753 686.75 207.986 685.55C207.219 684.317 206.836 682.95 206.836 681.45ZM223.836 683.3C224.236 682.833 224.553 682.367 224.786 681.9C225.019 681.4 225.136 680.983 225.136 680.65V677.4C224.103 677 223.019 676.7 221.886 676.5C220.753 676.267 219.636 676.15 218.536 676.15C216.303 676.15 214.486 676.6 213.086 677.5C211.719 678.367 211.036 679.567 211.036 681.1C211.036 681.933 211.253 682.75 211.686 683.55C212.153 684.317 212.819 684.95 213.686 685.45C214.586 685.95 215.686 686.2 216.986 686.2C218.353 686.2 219.653 685.933 220.886 685.4C222.119 684.833 223.103 684.133 223.836 683.3ZM250.371 666.75C248.171 666.783 246.221 667.35 244.521 668.45C242.855 669.517 241.671 671 240.971 672.9V689H236.571V662.9H240.671V668.95C241.571 667.15 242.755 665.7 244.221 664.6C245.721 663.467 247.288 662.833 248.921 662.7C249.255 662.7 249.538 662.7 249.771 662.7C250.005 662.7 250.205 662.717 250.371 662.75V666.75ZM252.547 676C252.547 673.533 253.047 671.283 254.047 669.25C255.081 667.183 256.481 665.533 258.247 664.3C260.047 663.067 262.097 662.45 264.397 662.45C266.497 662.45 268.381 663 270.047 664.1C271.714 665.2 273.014 666.533 273.947 668.1V652.5H278.347V684C278.347 684.533 278.447 684.933 278.647 685.2C278.881 685.433 279.247 685.567 279.747 685.6V689C278.914 689.133 278.264 689.2 277.797 689.2C276.931 689.2 276.164 688.9 275.497 688.3C274.864 687.7 274.547 687.033 274.547 686.3V684.1C273.514 685.767 272.131 687.083 270.397 688.05C268.664 689.017 266.864 689.5 264.997 689.5C263.197 689.5 261.531 689.15 259.997 688.45C258.497 687.717 257.181 686.717 256.047 685.45C254.947 684.183 254.081 682.75 253.447 681.15C252.847 679.517 252.547 677.8 252.547 676ZM273.947 679.85V672.35C273.547 671.217 272.897 670.2 271.997 669.3C271.097 668.367 270.081 667.633 268.947 667.1C267.847 666.533 266.747 666.25 265.647 666.25C264.347 666.25 263.164 666.533 262.097 667.1C261.064 667.633 260.164 668.367 259.397 669.3C258.664 670.2 258.097 671.233 257.697 672.4C257.297 673.567 257.097 674.783 257.097 676.05C257.097 677.35 257.314 678.583 257.747 679.75C258.214 680.917 258.847 681.95 259.647 682.85C260.481 683.75 261.431 684.45 262.497 684.95C263.597 685.45 264.781 685.7 266.047 685.7C266.847 685.7 267.664 685.55 268.497 685.25C269.364 684.95 270.181 684.533 270.947 684C271.714 683.467 272.364 682.85 272.897 682.15C273.431 681.417 273.781 680.65 273.947 679.85ZM297.243 689.5C295.276 689.5 293.476 689.15 291.843 688.45C290.243 687.717 288.843 686.733 287.643 685.5C286.476 684.233 285.559 682.783 284.893 681.15C284.259 679.517 283.943 677.783 283.943 675.95C283.943 673.483 284.509 671.233 285.643 669.2C286.776 667.167 288.343 665.533 290.343 664.3C292.376 663.067 294.693 662.45 297.293 662.45C299.926 662.45 302.209 663.083 304.143 664.35C306.109 665.583 307.626 667.217 308.693 669.25C309.793 671.25 310.343 673.417 310.343 675.75C310.343 676.083 310.326 676.417 310.293 676.75C310.293 677.05 310.276 677.283 310.243 677.45H288.593C288.726 679.15 289.193 680.667 289.993 682C290.826 683.3 291.893 684.333 293.193 685.1C294.493 685.833 295.893 686.2 297.393 686.2C298.993 686.2 300.493 685.8 301.893 685C303.326 684.2 304.309 683.15 304.843 681.85L308.643 682.9C308.076 684.167 307.226 685.3 306.093 686.3C304.993 687.3 303.676 688.083 302.143 688.65C300.643 689.217 299.009 689.5 297.243 689.5ZM288.443 674.4H306.243C306.109 672.7 305.626 671.2 304.793 669.9C303.959 668.6 302.893 667.583 301.593 666.85C300.293 666.117 298.859 665.75 297.293 665.75C295.759 665.75 294.343 666.117 293.043 666.85C291.743 667.583 290.676 668.6 289.843 669.9C289.043 671.2 288.576 672.7 288.443 674.4ZM325.83 681.45C325.83 679.783 326.297 678.35 327.23 677.15C328.197 675.917 329.513 674.967 331.18 674.3C332.847 673.633 334.78 673.3 336.98 673.3C338.147 673.3 339.38 673.4 340.68 673.6C341.98 673.767 343.13 674.033 344.13 674.4V672.5C344.13 670.5 343.53 668.933 342.33 667.8C341.13 666.633 339.43 666.05 337.23 666.05C335.797 666.05 334.413 666.317 333.08 666.85C331.78 667.35 330.397 668.083 328.93 669.05L327.33 665.95C329.03 664.783 330.73 663.917 332.43 663.35C334.13 662.75 335.897 662.45 337.73 662.45C341.063 662.45 343.697 663.383 345.63 665.25C347.563 667.083 348.53 669.65 348.53 672.95V684C348.53 684.533 348.63 684.933 348.83 685.2C349.063 685.433 349.43 685.567 349.93 685.6V689C349.497 689.067 349.113 689.117 348.78 689.15C348.48 689.183 348.23 689.2 348.03 689.2C346.997 689.2 346.213 688.917 345.68 688.35C345.18 687.783 344.897 687.183 344.83 686.55L344.73 684.9C343.597 686.367 342.113 687.5 340.28 688.3C338.447 689.1 336.63 689.5 334.83 689.5C333.097 689.5 331.547 689.15 330.18 688.45C328.813 687.717 327.747 686.75 326.98 685.55C326.213 684.317 325.83 682.95 325.83 681.45ZM342.83 683.3C343.23 682.833 343.547 682.367 343.78 681.9C344.013 681.4 344.13 680.983 344.13 680.65V677.4C343.097 677 342.013 676.7 340.88 676.5C339.747 676.267 338.63 676.15 337.53 676.15C335.297 676.15 333.48 676.6 332.08 677.5C330.713 678.367 330.03 679.567 330.03 681.1C330.03 681.933 330.247 682.75 330.68 683.55C331.147 684.317 331.813 684.95 332.68 685.45C333.58 685.95 334.68 686.2 335.98 686.2C337.347 686.2 338.647 685.933 339.88 685.4C341.113 684.833 342.097 684.133 342.83 683.3ZM355.666 652.5H360.066V682.25C360.066 683.683 360.266 684.567 360.666 684.9C361.066 685.233 361.549 685.4 362.116 685.4C362.816 685.4 363.482 685.333 364.116 685.2C364.749 685.033 365.282 684.867 365.716 684.7L366.416 688.3C365.682 688.6 364.816 688.85 363.816 689.05C362.816 689.25 361.932 689.35 361.166 689.35C359.466 689.35 358.116 688.867 357.116 687.9C356.149 686.933 355.666 685.583 355.666 683.85V652.5ZM380.272 689.3C378.506 689.3 376.872 688.95 375.372 688.25C373.906 687.517 372.639 686.533 371.572 685.3C370.506 684.033 369.672 682.6 369.072 681C368.506 679.4 368.222 677.733 368.222 676C368.222 674.167 368.506 672.433 369.072 670.8C369.672 669.167 370.506 667.733 371.572 666.5C372.672 665.233 373.956 664.25 375.422 663.55C376.889 662.817 378.522 662.45 380.322 662.45C382.489 662.45 384.372 662.983 385.972 664.05C387.606 665.117 388.972 666.467 390.072 668.1V662.9H393.972V688.7C393.972 691.167 393.372 693.25 392.172 694.95C391.006 696.65 389.406 697.933 387.372 698.8C385.372 699.7 383.139 700.15 380.672 700.15C377.739 700.15 375.339 699.633 373.472 698.6C371.606 697.567 370.056 696.167 368.822 694.4L371.372 692.15C372.406 693.683 373.739 694.833 375.372 695.6C377.039 696.367 378.806 696.75 380.672 696.75C382.272 696.75 383.739 696.45 385.072 695.85C386.439 695.283 387.522 694.4 388.322 693.2C389.156 692 389.572 690.5 389.572 688.7V684.1C388.606 685.7 387.272 686.967 385.572 687.9C383.906 688.833 382.139 689.3 380.272 689.3ZM381.622 685.7C382.556 685.7 383.456 685.533 384.322 685.2C385.189 684.867 385.989 684.433 386.722 683.9C387.456 683.333 388.072 682.7 388.572 682C389.072 681.3 389.406 680.583 389.572 679.85V672.35C389.106 671.15 388.439 670.1 387.572 669.2C386.706 668.267 385.722 667.55 384.622 667.05C383.522 666.517 382.389 666.25 381.222 666.25C379.889 666.25 378.689 666.533 377.622 667.1C376.589 667.667 375.706 668.433 374.972 669.4C374.239 670.333 373.672 671.383 373.272 672.55C372.872 673.717 372.672 674.9 372.672 676.1C372.672 677.4 372.906 678.633 373.372 679.8C373.839 680.933 374.472 681.95 375.272 682.85C376.072 683.75 377.022 684.45 378.122 684.95C379.222 685.45 380.389 685.7 381.622 685.7ZM400.823 678.55V662.9H405.223V677.7C405.223 680.367 405.69 682.367 406.623 683.7C407.557 685.033 408.94 685.7 410.773 685.7C411.973 685.7 413.123 685.45 414.223 684.95C415.357 684.417 416.373 683.667 417.273 682.7C418.173 681.733 418.873 680.583 419.373 679.25V662.9H423.773V684C423.773 684.533 423.873 684.933 424.073 685.2C424.307 685.433 424.673 685.567 425.173 685.6V689C424.673 689.067 424.273 689.1 423.973 689.1C423.707 689.133 423.44 689.15 423.173 689.15C422.34 689.15 421.623 688.9 421.023 688.4C420.423 687.867 420.107 687.217 420.073 686.45L419.973 683.4C418.84 685.333 417.307 686.833 415.373 687.9C413.473 688.967 411.39 689.5 409.123 689.5C406.39 689.5 404.323 688.583 402.923 686.75C401.523 684.883 400.823 682.15 400.823 678.55ZM453.753 689H449.353V674.4C449.353 671.633 448.919 669.617 448.053 668.35C447.219 667.05 445.936 666.4 444.203 666.4C443.003 666.4 441.803 666.7 440.603 667.3C439.436 667.9 438.386 668.717 437.453 669.75C436.553 670.75 435.903 671.917 435.503 673.25V689H431.103V662.9H435.103V668.5C435.803 667.267 436.703 666.2 437.803 665.3C438.903 664.4 440.153 663.7 441.553 663.2C442.953 662.7 444.419 662.45 445.953 662.45C447.453 662.45 448.703 662.733 449.703 663.3C450.736 663.833 451.536 664.6 452.103 665.6C452.703 666.567 453.119 667.717 453.353 669.05C453.619 670.383 453.753 671.833 453.753 673.4V689ZM469.545 689.5C467.378 689.5 465.345 689.15 463.445 688.45C461.545 687.717 459.912 686.633 458.545 685.2L460.245 682.1C461.745 683.5 463.245 684.5 464.745 685.1C466.245 685.7 467.778 686 469.345 686C471.145 686 472.612 685.667 473.745 685C474.878 684.3 475.445 683.283 475.445 681.95C475.445 680.983 475.145 680.267 474.545 679.8C473.978 679.333 473.162 678.95 472.095 678.65C471.028 678.317 469.762 677.95 468.295 677.55C466.495 677.017 464.978 676.45 463.745 675.85C462.512 675.25 461.578 674.5 460.945 673.6C460.312 672.7 459.995 671.567 459.995 670.2C459.995 668.533 460.428 667.133 461.295 666C462.162 664.833 463.345 663.95 464.845 663.35C466.378 662.75 468.112 662.45 470.045 662.45C471.978 662.45 473.728 662.75 475.295 663.35C476.862 663.95 478.212 664.833 479.345 666L477.345 669.05C476.312 667.983 475.178 667.2 473.945 666.7C472.712 666.167 471.328 665.9 469.795 665.9C468.895 665.9 468.012 666.017 467.145 666.25C466.278 666.45 465.562 666.833 464.995 667.4C464.428 667.933 464.145 668.7 464.145 669.7C464.145 670.533 464.362 671.2 464.795 671.7C465.262 672.167 465.928 672.567 466.795 672.9C467.695 673.233 468.778 673.6 470.045 674C472.012 674.567 473.712 675.133 475.145 675.7C476.612 676.267 477.745 677 478.545 677.9C479.345 678.8 479.745 680.05 479.745 681.65C479.745 684.117 478.812 686.05 476.945 687.45C475.078 688.817 472.612 689.5 469.545 689.5ZM497.655 689V662.9H502.055V689H497.655ZM497.655 658V652.5H502.055V658H497.655ZM531.829 689H527.429V674.4C527.429 671.633 526.996 669.617 526.129 668.35C525.296 667.05 524.012 666.4 522.279 666.4C521.079 666.4 519.879 666.7 518.679 667.3C517.512 667.9 516.462 668.717 515.529 669.75C514.629 670.75 513.979 671.917 513.579 673.25V689H509.179V662.9H513.179V668.5C513.879 667.267 514.779 666.2 515.879 665.3C516.979 664.4 518.229 663.7 519.629 663.2C521.029 662.7 522.496 662.45 524.029 662.45C525.529 662.45 526.779 662.733 527.779 663.3C528.812 663.833 529.612 664.6 530.179 665.6C530.779 666.567 531.196 667.717 531.429 669.05C531.696 670.383 531.829 671.833 531.829 673.4V689ZM547.621 689.5C545.454 689.5 543.421 689.15 541.521 688.45C539.621 687.717 537.988 686.633 536.621 685.2L538.321 682.1C539.821 683.5 541.321 684.5 542.821 685.1C544.321 685.7 545.854 686 547.421 686C549.221 686 550.688 685.667 551.821 685C552.954 684.3 553.521 683.283 553.521 681.95C553.521 680.983 553.221 680.267 552.621 679.8C552.054 679.333 551.238 678.95 550.171 678.65C549.104 678.317 547.838 677.95 546.371 677.55C544.571 677.017 543.054 676.45 541.821 675.85C540.588 675.25 539.654 674.5 539.021 673.6C538.388 672.7 538.071 671.567 538.071 670.2C538.071 668.533 538.504 667.133 539.371 666C540.238 664.833 541.421 663.95 542.921 663.35C544.454 662.75 546.188 662.45 548.121 662.45C550.054 662.45 551.804 662.75 553.371 663.35C554.938 663.95 556.288 664.833 557.421 666L555.421 669.05C554.388 667.983 553.254 667.2 552.021 666.7C550.788 666.167 549.404 665.9 547.871 665.9C546.971 665.9 546.088 666.017 545.221 666.25C544.354 666.45 543.638 666.833 543.071 667.4C542.504 667.933 542.221 668.7 542.221 669.7C542.221 670.533 542.438 671.2 542.871 671.7C543.338 672.167 544.004 672.567 544.871 672.9C545.771 673.233 546.854 673.6 548.121 674C550.088 674.567 551.788 675.133 553.221 675.7C554.688 676.267 555.821 677 556.621 677.9C557.421 678.8 557.821 680.05 557.821 681.65C557.821 684.117 556.888 686.05 555.021 687.45C553.154 688.817 550.688 689.5 547.621 689.5ZM576.585 687.7C576.218 687.867 575.718 688.083 575.085 688.35C574.452 688.617 573.718 688.85 572.885 689.05C572.052 689.25 571.168 689.35 570.235 689.35C569.168 689.35 568.185 689.167 567.285 688.8C566.385 688.4 565.668 687.8 565.135 687C564.602 686.167 564.335 685.133 564.335 683.9V666.35H560.785V662.9H564.335V654.2H568.735V662.9H574.585V666.35H568.735V682.55C568.802 683.483 569.118 684.183 569.685 684.65C570.252 685.083 570.918 685.3 571.685 685.3C572.552 685.3 573.352 685.15 574.085 684.85C574.818 684.55 575.302 684.333 575.535 684.2L576.585 687.7ZM578.613 681.45C578.613 679.783 579.08 678.35 580.013 677.15C580.98 675.917 582.297 674.967 583.963 674.3C585.63 673.633 587.563 673.3 589.763 673.3C590.93 673.3 592.163 673.4 593.463 673.6C594.763 673.767 595.913 674.033 596.913 674.4V672.5C596.913 670.5 596.313 668.933 595.113 667.8C593.913 666.633 592.213 666.05 590.013 666.05C588.58 666.05 587.197 666.317 585.863 666.85C584.563 667.35 583.18 668.083 581.713 669.05L580.113 665.95C581.813 664.783 583.513 663.917 585.213 663.35C586.913 662.75 588.68 662.45 590.513 662.45C593.847 662.45 596.48 663.383 598.413 665.25C600.347 667.083 601.313 669.65 601.313 672.95V684C601.313 684.533 601.413 684.933 601.613 685.2C601.847 685.433 602.213 685.567 602.713 685.6V689C602.28 689.067 601.897 689.117 601.563 689.15C601.263 689.183 601.013 689.2 600.813 689.2C599.78 689.2 598.997 688.917 598.463 688.35C597.963 687.783 597.68 687.183 597.613 686.55L597.513 684.9C596.38 686.367 594.897 687.5 593.063 688.3C591.23 689.1 589.413 689.5 587.613 689.5C585.88 689.5 584.33 689.15 582.963 688.45C581.597 687.717 580.53 686.75 579.763 685.55C578.997 684.317 578.613 682.95 578.613 681.45ZM595.613 683.3C596.013 682.833 596.33 682.367 596.563 681.9C596.797 681.4 596.913 680.983 596.913 680.65V677.4C595.88 677 594.797 676.7 593.663 676.5C592.53 676.267 591.413 676.15 590.313 676.15C588.08 676.15 586.263 676.6 584.863 677.5C583.497 678.367 582.813 679.567 582.813 681.1C582.813 681.933 583.03 682.75 583.463 683.55C583.93 684.317 584.597 684.95 585.463 685.45C586.363 685.95 587.463 686.2 588.763 686.2C590.13 686.2 591.43 685.933 592.663 685.4C593.897 684.833 594.88 684.133 595.613 683.3ZM630.999 689H626.599V674.4C626.599 671.633 626.165 669.617 625.299 668.35C624.465 667.05 623.182 666.4 621.449 666.4C620.249 666.4 619.049 666.7 617.849 667.3C616.682 667.9 615.632 668.717 614.699 669.75C613.799 670.75 613.149 671.917 612.749 673.25V689H608.349V662.9H612.349V668.5C613.049 667.267 613.949 666.2 615.049 665.3C616.149 664.4 617.399 663.7 618.799 663.2C620.199 662.7 621.665 662.45 623.199 662.45C624.699 662.45 625.949 662.733 626.949 663.3C627.982 663.833 628.782 664.6 629.349 665.6C629.949 666.567 630.365 667.717 630.599 669.05C630.865 670.383 630.999 671.833 630.999 673.4V689ZM651.097 687.7C650.73 687.867 650.23 688.083 649.597 688.35C648.964 688.617 648.23 688.85 647.397 689.05C646.564 689.25 645.68 689.35 644.747 689.35C643.68 689.35 642.697 689.167 641.797 688.8C640.897 688.4 640.18 687.8 639.647 687C639.114 686.167 638.847 685.133 638.847 683.9V666.35H635.297V662.9H638.847V654.2H643.247V662.9H649.097V666.35H643.247V682.55C643.314 683.483 643.63 684.183 644.197 684.65C644.764 685.083 645.43 685.3 646.197 685.3C647.064 685.3 647.864 685.15 648.597 684.85C649.33 684.55 649.814 684.333 650.047 684.2L651.097 687.7ZM666.383 689.5C664.417 689.5 662.617 689.15 660.983 688.45C659.383 687.717 657.983 686.733 656.783 685.5C655.617 684.233 654.7 682.783 654.033 681.15C653.4 679.517 653.083 677.783 653.083 675.95C653.083 673.483 653.65 671.233 654.783 669.2C655.917 667.167 657.483 665.533 659.483 664.3C661.517 663.067 663.833 662.45 666.433 662.45C669.067 662.45 671.35 663.083 673.283 664.35C675.25 665.583 676.767 667.217 677.833 669.25C678.933 671.25 679.483 673.417 679.483 675.75C679.483 676.083 679.467 676.417 679.433 676.75C679.433 677.05 679.417 677.283 679.383 677.45H657.733C657.867 679.15 658.333 680.667 659.133 682C659.967 683.3 661.033 684.333 662.333 685.1C663.633 685.833 665.033 686.2 666.533 686.2C668.133 686.2 669.633 685.8 671.033 685C672.467 684.2 673.45 683.15 673.983 681.85L677.783 682.9C677.217 684.167 676.367 685.3 675.233 686.3C674.133 687.3 672.817 688.083 671.283 688.65C669.783 689.217 668.15 689.5 666.383 689.5ZM657.583 674.4H675.383C675.25 672.7 674.767 671.2 673.933 669.9C673.1 668.6 672.033 667.583 670.733 666.85C669.433 666.117 668 665.75 666.433 665.75C664.9 665.75 663.483 666.117 662.183 666.85C660.883 667.583 659.817 668.6 658.983 669.9C658.183 671.2 657.717 672.7 657.583 674.4ZM693.324 689.5C691.158 689.5 689.124 689.15 687.224 688.45C685.324 687.717 683.691 686.633 682.324 685.2L684.024 682.1C685.524 683.5 687.024 684.5 688.524 685.1C690.024 685.7 691.558 686 693.124 686C694.924 686 696.391 685.667 697.524 685C698.658 684.3 699.224 683.283 699.224 681.95C699.224 680.983 698.924 680.267 698.324 679.8C697.758 679.333 696.941 678.95 695.874 678.65C694.808 678.317 693.541 677.95 692.074 677.55C690.274 677.017 688.758 676.45 687.524 675.85C686.291 675.25 685.358 674.5 684.724 673.6C684.091 672.7 683.774 671.567 683.774 670.2C683.774 668.533 684.208 667.133 685.074 666C685.941 664.833 687.124 663.95 688.624 663.35C690.158 662.75 691.891 662.45 693.824 662.45C695.758 662.45 697.508 662.75 699.074 663.35C700.641 663.95 701.991 664.833 703.124 666L701.124 669.05C700.091 667.983 698.958 667.2 697.724 666.7C696.491 666.167 695.108 665.9 693.574 665.9C692.674 665.9 691.791 666.017 690.924 666.25C690.058 666.45 689.341 666.833 688.774 667.4C688.208 667.933 687.924 668.7 687.924 669.7C687.924 670.533 688.141 671.2 688.574 671.7C689.041 672.167 689.708 672.567 690.574 672.9C691.474 673.233 692.558 673.6 693.824 674C695.791 674.567 697.491 675.133 698.924 675.7C700.391 676.267 701.524 677 702.324 677.9C703.124 678.8 703.524 680.05 703.524 681.65C703.524 684.117 702.591 686.05 700.724 687.45C698.858 688.817 696.391 689.5 693.324 689.5ZM708.438 689V683.4H712.138V689H708.438ZM718.546 689V683.4H722.246V689H718.546ZM728.653 689V683.4H732.353V689H728.653Z" fill="#0A090C"/>
<defs>
<clipPath id="clip0_26852_70">
<rect width="848.284" height="615.234" fill="white"/>
</clipPath>
</defs>
</svg>
